<svg width="40" height="40" viewBox="0 0 40 40" fill="none" xmlns="http://www.w3.org/2000/svg">
<path d="M33.3771 33.5082H19.939H6.4918V20.1245V6.62296H19.8962H33.3771V20.0652V33.5082Z" fill="white"/>
<path d="M32.3619 25.6109H23.5272L22.966 24.8824V25.6109H21.0515V24.4485C20.8092 24.5388 20.5346 24.5926 20.2277 24.5926H19.9155V25.6109H17.0776L16.6429 25.0045L16.2221 25.6109H11.6055V21.1572H16.24L16.6702 21.7546L17.0955 21.1572H33.3771V6.62296H6.4918V17.5424L7.4242 15.3694H9.28013L9.75961 16.4848V15.3694H12.0273L12.3261 16.2521L12.6248 15.3694H22.4782V15.7839C22.8471 15.4995 23.3262 15.3694 23.8494 15.3694H26.9091L27.3886 16.4848V15.3694H29.2217L29.7557 16.1976V15.3694H31.7202V19.8232H29.7874L29.2852 19.0446V19.8232H26.5424L26.2844 19.1622H25.7049L25.4472 19.8232H23.7997C23.3644 19.8232 22.8719 19.7344 22.4782 19.439V19.8232H19.6944L19.1331 19.0946V19.8232H8.91344L8.65541 19.1622H8.0762L7.81816 19.8232H6.4918V33.5082H33.3771V25.3206C33.1033 25.5013 32.7555 25.6109 32.3619 25.6109Z" fill="#006FCF"/>
<path d="M32.3621 24.2579H30.7236V24.9685H32.3576C33.0455 24.9685 33.4529 24.5518 33.4529 23.9409C33.4529 23.3662 33.0951 23.0312 32.4663 23.0312H31.715C31.5473 23.0312 31.4297 22.927 31.4297 22.7687C31.4297 22.6104 31.5473 22.5106 31.715 22.5106H33.0817L33.3939 21.8001H31.7239C31.0357 21.8001 30.6239 22.2209 30.6239 22.7959C30.6239 23.3934 31.0134 23.7373 31.6153 23.7373H32.3621C32.5294 23.7373 32.6519 23.8415 32.6519 23.9998C32.6519 24.1582 32.5294 24.2579 32.3621 24.2579ZM29.4607 24.2579H27.8225V24.9685H29.4562C30.1444 24.9685 30.5518 24.5518 30.5518 23.9409C30.5518 23.3662 30.1941 23.0312 29.5649 23.0312H28.8136C28.6462 23.0312 28.5287 22.927 28.5287 22.7687C28.5287 22.6104 28.6462 22.5106 28.8136 22.5106H30.1807L30.4928 21.8001H28.8225C28.1347 21.8001 27.7228 22.2209 27.7228 22.7959C27.7228 23.3934 28.1119 23.7373 28.7142 23.7373H29.4607C29.6283 23.7373 29.7504 23.8415 29.7504 23.9998C29.7504 24.1582 29.6283 24.2579 29.4607 24.2579ZM27.4648 22.5106V21.8001H24.8849V24.9685H27.4648V24.2579H25.6907V23.719H27.4241V23.0267H25.6907V22.5106H27.4648ZM23.3822 22.5106C23.6268 22.5106 23.7534 22.66 23.7534 22.8367C23.7534 23.0178 23.6268 23.1578 23.3822 23.1578H22.5088V22.5106H23.3822ZM22.5088 23.846H22.821L23.7672 24.9685H24.7582L23.731 23.8142C24.2515 23.7011 24.5637 23.3161 24.5637 22.8228C24.5637 22.2164 24.1429 21.8001 23.464 21.8001H21.7033V24.9685H22.5088V23.846ZM20.5491 22.8729C20.5491 23.0674 20.4222 23.2258 20.1779 23.2258H19.2817V22.5106H20.1779C20.4222 22.5106 20.5491 22.6735 20.5491 22.8729ZM18.4763 21.8001V24.9685H19.2817V23.9363H20.2321C20.9292 23.9363 21.359 23.4793 21.359 22.8684C21.359 22.2347 20.9382 21.8001 20.2593 21.8001H18.4763ZM17.399 24.9685H18.4083L17.1319 23.3706L18.3993 21.8001H17.4169L16.67 22.7731L15.9232 21.8001H14.9142L16.1812 23.3885L14.9187 24.9685H15.9008L16.6476 23.986L17.399 24.9685ZM14.8552 22.5106V21.8001H12.2753V24.9685H14.8552V24.2579H13.0811V23.719H14.8146V23.0267H13.0811V22.5106H14.8552Z" fill="#006FCF"/>
<path d="M30.0726 19.1805H31.0502V16.012H30.2492V17.9766L28.9863 16.012H27.968V19.1805H28.769V17.1439L30.0726 19.1805ZM25.5512 17.8451L25.99 16.7589L26.4336 17.8451H25.5512ZM26.9769 19.1805H27.8821L26.5289 16.012H25.4833L24.1255 19.1805H25.0124L25.2749 18.5333H26.7144L26.9769 19.1805ZM23.7182 19.1805H23.7816L24.1117 18.4698H23.8537C23.3469 18.4698 23.0482 18.1622 23.0482 17.6188V17.5736C23.0482 17.0983 23.3152 16.7454 23.8403 16.7454H24.6913V16.012H23.7767C22.7812 16.012 22.2473 16.673 22.2473 17.5736V17.6188C22.2473 18.5919 22.8085 19.1805 23.7182 19.1805ZM21.0523 19.1805H21.8582V17.5963V16.012H21.0523V17.5963V19.1805ZM19.5496 16.7226C19.7939 16.7226 19.9208 16.872 19.9208 17.0487C19.9208 17.2297 19.7939 17.3701 19.5496 17.3701H18.6763V16.7226H19.5496ZM18.6763 18.058H18.9885L19.9343 19.1805H20.9257L19.8981 18.0262C20.4186 17.9131 20.7308 17.5285 20.7308 17.0352C20.7308 16.4287 20.31 16.012 19.6311 16.012H17.8704V19.1805H18.6763V18.058ZM17.4178 16.7226V16.012H14.8379V19.1805H17.4178V18.4698H15.6437V17.9314H17.3771V17.2387H15.6437V16.7226H17.4178ZM11.9686 19.1805H12.6698L13.5074 16.8358V19.1805H14.3039V16.012H13.0365L12.3304 18.0307L11.6198 16.012H10.3389V19.1805H11.1359V16.8358L11.9686 19.1805ZM7.92223 17.8451L8.36137 16.7589L8.80498 17.8451H7.92223ZM9.34793 19.1805H10.2531L8.8998 16.012H7.85423L6.49651 19.1805H7.38373L7.64629 18.5333H9.08544L9.34793 19.1805Z" fill="#006FCF"/>
</svg>
