<svg width="40" height="24" viewBox="0 0 40 24" fill="none" xmlns="http://www.w3.org/2000/svg">
<g clip-path="url(#clip0_130_30)">
<path d="M38.4 0H1.6C0.716344 0 0 0.716344 0 1.6V22.4C0 23.2837 0.716344 24 1.6 24H38.4C39.2837 24 40 23.2837 40 22.4V1.6C40 0.716344 39.2837 0 38.4 0Z" fill="white"/>
<path d="M9.646 24H38.4C39.284 24 40 23.2852 40 22.402V13.4792C40 13.4792 29.28 20.7472 9.646 24Z" fill="#E6772F"/>
<path fill-rule="evenodd" clip-rule="evenodd" d="M7.3156 11.9288C7.0152 12.1856 6.6328 12.298 6.0216 12.298H5.768V9.23399H6.0216C6.6328 9.23399 7.0004 9.33839 7.3156 9.60799C7.6404 9.88679 7.8356 10.316 7.8356 10.7608C7.8356 11.2072 7.6404 11.6524 7.3156 11.9288ZM6.2108 8.44879H4.8228V13.0832H6.2028C6.9364 13.0832 7.4668 12.916 7.9308 12.5472C8.4828 12.11 8.81 11.4504 8.81 10.7672C8.81 9.39919 7.742 8.44879 6.2108 8.44879ZM9.2456 8.44879H10.1868V13.0832H9.2456V8.44879ZM12.4976 10.2252C11.9296 10.0256 11.7636 9.89319 11.7636 9.64239C11.7636 9.35119 12.0604 9.13039 12.4684 9.13039C12.7512 9.13039 12.9844 9.23879 13.2324 9.50359L13.7236 8.88679C13.3271 8.54994 12.8226 8.36718 12.3024 8.37199C11.4452 8.37199 10.792 8.94239 10.792 9.69679C10.792 10.3372 11.0956 10.6624 11.9816 10.9708C12.3524 11.094 12.5404 11.1784 12.6356 11.2352C12.8244 11.352 12.9184 11.5192 12.9184 11.7128C12.9184 12.09 12.6064 12.3668 12.1844 12.3668C11.7352 12.3668 11.372 12.1516 11.1544 11.7476L10.5456 12.3116C10.9808 12.922 11.5024 13.1948 12.2216 13.1948C13.2016 13.1948 13.8924 12.5668 13.8924 11.6724C13.8924 10.9352 13.5724 10.6008 12.4976 10.2252ZM14.1892 10.7672C14.1892 12.13 15.3072 13.186 16.746 13.186C17.152 13.186 17.4996 13.1092 17.928 12.916V11.8508C17.5496 12.2148 17.2172 12.3588 16.7876 12.3588C15.8368 12.3588 15.1632 11.7 15.1632 10.7608C15.1632 9.87279 15.8584 9.16999 16.746 9.16999C17.194 9.16999 17.5364 9.32199 17.928 9.69119V8.62719C17.5144 8.42719 17.1748 8.34439 16.7656 8.34439C15.3348 8.34439 14.1892 9.42079 14.1892 10.7672ZM25.5796 11.56L24.288 8.44879H23.2584L25.3112 13.2H25.8176L27.9104 8.44879H26.8888L25.5796 11.56ZM28.3388 13.0832H31.0172V12.298H29.284V11.0468H30.9512V10.262H29.284V9.23399H31.0172V8.44879H28.3388V13.0832ZM32.8616 10.58H32.5876V9.17839H32.8772C33.4672 9.17839 33.7832 9.41519 33.7832 9.86639C33.7832 10.3304 33.4672 10.58 32.8616 10.58ZM34.7556 9.81599C34.7556 8.94839 34.1336 8.44879 33.0436 8.44879H31.6408V13.0832H32.5876V11.22H32.7104L34.0152 13.0832H35.1768L33.6532 11.13C34.3652 10.9908 34.7556 10.5248 34.7556 9.81599Z" fill="#1A1919"/>
<path fill-rule="evenodd" clip-rule="evenodd" d="M23.3916 10.778C23.3916 12.112 22.262 13.1936 20.8672 13.1936C19.4724 13.1936 18.3428 12.112 18.3428 10.778C18.3428 9.4436 19.4724 8.362 20.8668 8.362C22.262 8.362 23.3916 9.4436 23.3916 10.778Z" fill="#E6772F"/>
</g>
<defs>
<clipPath id="clip0_130_30">
<rect width="40" height="24" fill="white"/>
</clipPath>
</defs>
</svg>
