<svg width="40" height="40" viewBox="0 0 40 40" fill="none" xmlns="http://www.w3.org/2000/svg">
<mask id="mask0_130_7" style="mask-type:luminance" maskUnits="userSpaceOnUse" x="0" y="0" width="40" height="40">
<path d="M39.9604 0H0V39.9604H39.9604V0Z" fill="white"/>
</mask>
<g mask="url(#mask0_130_7)">
<path d="M25.3826 10.2735H14.5778V29.6877H25.3826V10.2735Z" fill="#FF5F00"/>
<path d="M15.2638 19.9806C15.2638 16.036 17.1161 12.5374 19.963 10.2735C17.8707 8.62708 15.2295 7.63235 12.3483 7.63235C5.52244 7.63235 0 13.1548 0 19.9806C0 26.8065 5.52244 32.3289 12.3483 32.3289C15.2295 32.3289 17.8707 31.3342 19.963 29.6877C17.1161 27.4582 15.2638 23.9252 15.2638 19.9806Z" fill="#EB001B"/>
<path d="M39.9604 19.9806C39.9604 26.8065 34.438 32.3289 27.6121 32.3289C24.7308 32.3289 22.0897 31.3342 19.9973 29.6877C22.8786 27.4239 24.6965 23.9252 24.6965 19.9806C24.6965 16.036 22.8443 12.5374 19.9973 10.2735C22.0897 8.62708 24.7308 7.63235 27.6121 7.63235C34.438 7.63235 39.9604 13.1891 39.9604 19.9806Z" fill="#F79E1B"/>
</g>
</svg>
