<svg width="24" height="24" viewBox="0 0 24 24" fill="none" xmlns="http://www.w3.org/2000/svg">
<mask id="mask0_74_948" style="mask-type:luminance" maskUnits="userSpaceOnUse" x="0" y="0" width="24" height="24">
<path d="M23.9763 6.10352e-05H0V23.9763H23.9763V6.10352e-05Z" fill="white"/>
</mask>
<g mask="url(#mask0_74_948)">
<path d="M15.2295 6.16418H8.74669V17.8127H15.2295V6.16418Z" fill="#FF5F00"/>
<path d="M9.15829 11.9884C9.15829 9.62167 10.2697 7.52248 11.9778 6.16416C10.7224 5.1763 9.13772 4.57947 7.40895 4.57947C3.31346 4.57947 0 7.89293 0 11.9884C0 16.0839 3.31346 19.3974 7.40895 19.3974C9.13772 19.3974 10.7224 18.8006 11.9778 17.8127C10.2697 16.475 9.15829 14.3552 9.15829 11.9884Z" fill="#EB001B"/>
<path d="M23.9763 11.9884C23.9763 16.0839 20.6628 19.3974 16.5673 19.3974C14.8385 19.3974 13.2538 18.8006 11.9984 17.8127C13.7272 16.4544 14.8179 14.3552 14.8179 11.9884C14.8179 9.62167 13.7066 7.52248 11.9984 6.16416C13.2538 5.1763 14.8385 4.57947 16.5673 4.57947C20.6628 4.57947 23.9763 7.9135 23.9763 11.9884Z" fill="#F79E1B"/>
</g>
</svg>
