<svg width="96" height="26" viewBox="0 0 96 26" fill="none" xmlns="http://www.w3.org/2000/svg">
<g clip-path="url(#clip0_130_62)">
<path d="M35.7763 5.63559H30.4816C30.1192 5.63559 29.8111 5.89935 29.7546 6.25775L27.6132 19.8622C27.5706 20.1306 27.7781 20.3727 28.0498 20.3727H30.5775C30.9399 20.3727 31.248 20.1089 31.3045 19.7497L31.8821 16.0804C31.9378 15.7212 32.2467 15.4575 32.6083 15.4575H34.2844C37.7721 15.4575 39.785 13.7663 40.3107 10.415C40.5476 8.94885 40.3208 7.79685 39.6356 6.99006C38.8831 6.10415 37.5484 5.63559 35.7763 5.63559ZM36.3871 10.6043C36.0975 12.508 34.6459 12.508 33.2423 12.508H32.4434L33.0039 8.95273C33.0372 8.73785 33.223 8.57959 33.4397 8.57959H33.8059C34.7621 8.57959 35.664 8.57959 36.1301 9.12573C36.408 9.45154 36.4932 9.93562 36.3871 10.6043Z" fill="#253B80"/>
<path d="M51.6031 10.543H49.0676C48.8516 10.543 48.665 10.7013 48.6317 10.9161L48.5195 11.6267L48.3422 11.3692C47.7933 10.5709 46.5693 10.3041 45.3476 10.3041C42.5458 10.3041 40.1528 12.4304 39.6867 15.4132C39.4444 16.9011 39.7889 18.3239 40.6312 19.3161C41.4038 20.2283 42.5094 20.6085 43.8248 20.6085C46.0823 20.6085 47.3342 19.1539 47.3342 19.1539L47.2211 19.8599C47.1786 20.1298 47.386 20.3719 47.6562 20.3719H49.9401C50.3032 20.3719 50.6098 20.1081 50.6671 19.7489L52.0374 11.0535C52.0808 10.7858 51.874 10.543 51.6031 10.543ZM48.0689 15.4877C47.8242 16.9391 46.6746 17.9135 45.2082 17.9135C44.472 17.9135 43.8836 17.6769 43.5058 17.2285C43.1311 16.7832 42.9886 16.1494 43.1078 15.4435C43.3362 14.0044 44.5053 12.9983 45.9491 12.9983C46.6691 12.9983 47.2544 13.238 47.64 13.6903C48.0263 14.1472 48.1796 14.7849 48.0689 15.4877Z" fill="#253B80"/>
<path d="M65.1066 10.543H62.5587C62.3156 10.543 62.0872 10.664 61.9494 10.8665L58.4353 16.0532L56.9458 11.069C56.8521 10.7571 56.5649 10.543 56.2397 10.543H53.736C53.4317 10.543 53.2204 10.8409 53.3171 11.128L56.1236 19.3805L53.4852 23.1126C53.2777 23.4066 53.4867 23.8108 53.8452 23.8108H56.3899C56.6315 23.8108 56.8575 23.6929 56.9946 23.4943L65.4689 11.2373C65.6717 10.9441 65.4635 10.543 65.1066 10.543Z" fill="#253B80"/>
<path d="M73.5422 5.63559H68.2467C67.8852 5.63559 67.5771 5.89935 67.5205 6.25775L65.3791 19.8622C65.3365 20.1306 65.544 20.3727 65.8142 20.3727H68.5316C68.784 20.3727 69 20.188 69.0395 19.9367L69.6473 16.0804C69.703 15.7212 70.0119 15.4575 70.3735 15.4575H72.0488C75.5373 15.4575 77.5495 13.7663 78.0759 10.415C78.3136 8.94885 78.0852 7.79685 77.4 6.99006C76.6483 6.10415 75.3144 5.63559 73.5422 5.63559ZM74.1531 10.6043C73.8643 12.508 72.4127 12.508 71.0083 12.508H70.2101L70.7714 8.95273C70.8047 8.73785 70.9889 8.57959 71.2065 8.57959H71.5727C72.528 8.57959 73.4307 8.57959 73.8968 9.12573C74.1747 9.45154 74.2591 9.93562 74.1531 10.6043Z" fill="#179BD7"/>
<path d="M89.3683 10.543H86.8343C86.6168 10.543 86.4317 10.7013 86.3992 10.9161L86.287 11.6267L86.1089 11.3692C85.56 10.5709 84.3368 10.3041 83.1151 10.3041C80.3133 10.3041 77.921 12.4304 77.455 15.4132C77.2134 16.9011 77.5564 18.3239 78.3987 19.3161C79.1729 20.2283 80.2769 20.6085 81.5923 20.6085C83.8498 20.6085 85.1017 19.1539 85.1017 19.1539L84.9886 19.8599C84.9461 20.1298 85.1536 20.3719 85.4253 20.3719H87.7084C88.0699 20.3719 88.3781 20.1081 88.4346 19.7489L89.8057 11.0535C89.8475 10.7858 89.64 10.543 89.3683 10.543ZM85.8341 15.4877C85.591 16.9391 84.4397 17.9135 82.9734 17.9135C82.2387 17.9135 81.6488 17.6769 81.271 17.2285C80.8963 16.7832 80.7554 16.1494 80.873 15.4435C81.103 14.0044 82.2705 12.9983 83.7143 12.9983C84.4343 12.9983 85.0196 13.238 85.4052 13.6903C85.793 14.1472 85.9463 14.7849 85.8341 15.4877Z" fill="#179BD7"/>
<path d="M92.3574 6.00871L90.1842 19.8622C90.1417 20.1306 90.3491 20.3726 90.6193 20.3726H92.8041C93.1672 20.3726 93.4753 20.1089 93.5311 19.7497L95.674 6.14602C95.7166 5.87761 95.5091 5.6348 95.2389 5.6348H92.7925C92.5765 5.63557 92.3907 5.79383 92.3574 6.00871Z" fill="#179BD7"/>
<path d="M5.62529 23.0164L6.03019 20.4394L5.12826 20.4184H0.821419L3.81445 1.40227C3.82374 1.34486 3.85393 1.29134 3.89806 1.25332C3.94219 1.21531 3.99871 1.19437 4.05755 1.19437H11.3195C13.7303 1.19437 15.3941 1.69706 16.2627 2.68925C16.6699 3.15471 16.9293 3.64111 17.0547 4.17638C17.1863 4.73803 17.1886 5.40906 17.0601 6.22748L17.0508 6.28721V6.81163L17.4581 7.0428C17.801 7.2251 18.0735 7.43378 18.2826 7.67272C18.631 8.07068 18.8562 8.57647 18.9515 9.17613C19.0498 9.79286 19.0173 10.5267 18.8563 11.3576C18.6704 12.3133 18.3701 13.1457 17.9644 13.8268C17.5912 14.4544 17.1159 14.9749 16.5515 15.3783C16.0126 15.7615 15.3724 16.0524 14.6485 16.2386C13.9471 16.4217 13.1473 16.514 12.2702 16.514H11.705C11.3009 16.514 10.9084 16.6599 10.6003 16.9213C10.2914 17.1882 10.087 17.5528 10.0243 17.9515L9.98167 18.1835L9.26632 22.7255L9.2338 22.8923C9.22529 22.9451 9.21058 22.9714 9.1889 22.9893C9.16954 23.0056 9.14167 23.0164 9.11458 23.0164H5.62529Z" fill="#253B80"/>
<path d="M17.8436 6.34772C17.8219 6.48658 17.7972 6.62854 17.7693 6.77438C16.8116 11.7012 13.5352 13.4032 9.35071 13.4032H7.22013C6.70839 13.4032 6.27716 13.7756 6.19742 14.2814L5.10658 21.2136L4.79768 23.1786C4.74581 23.5106 5.00129 23.81 5.33574 23.81H9.11458C9.56207 23.81 9.94219 23.4842 10.0126 23.042L10.0498 22.8496L10.7613 18.3254L10.807 18.0772C10.8766 17.6334 11.2575 17.3076 11.705 17.3076H12.2702C15.9314 17.3076 18.7974 15.8182 19.6351 11.5081C19.985 9.70752 19.8039 8.2041 18.8779 7.14675C18.5977 6.82791 18.2501 6.56338 17.8436 6.34772Z" fill="#179BD7"/>
<path d="M16.8418 5.94743C16.6955 5.90477 16.5445 5.86598 16.3897 5.83107C16.2341 5.79694 16.0746 5.76668 15.9104 5.74031C15.336 5.64722 14.7066 5.603 14.0323 5.603H8.34039C8.20026 5.603 8.0671 5.6348 7.94787 5.69221C7.68542 5.81866 7.49032 6.06768 7.4431 6.37255L6.23226 14.0572L6.19742 14.2814C6.27716 13.7756 6.70839 13.4032 7.22013 13.4032H9.35071C13.5352 13.4032 16.8116 11.7004 17.7693 6.77439C17.7979 6.62855 17.8219 6.48658 17.8436 6.34772C17.6013 6.21895 17.3388 6.10879 17.0563 6.01492C16.9866 5.99165 16.9146 5.96915 16.8418 5.94743Z" fill="#222D65"/>
<path d="M7.44309 6.37255C7.49031 6.06768 7.68541 5.81866 7.94786 5.69299C8.06786 5.63558 8.20025 5.60378 8.34038 5.60378H14.0322C14.7066 5.60378 15.336 5.64799 15.9104 5.74108C16.0746 5.76746 16.2341 5.79771 16.3897 5.83185C16.5445 5.86676 16.6955 5.90554 16.8418 5.94821C16.9146 5.96993 16.9866 5.99243 17.057 6.01493C17.3396 6.10879 17.602 6.21973 17.8444 6.34773C18.1293 4.52702 17.8421 3.28736 16.8596 2.16484C15.7765 0.929061 13.8217 0.399994 11.3202 0.399994H4.05831C3.54735 0.399994 3.11147 0.772358 3.03251 1.27893L0.00773328 20.4906C-0.0518796 20.8707 0.240765 21.2136 0.623217 21.2136H5.10657L6.23225 14.0572L7.44309 6.37255Z" fill="#253B80"/>
</g>
<defs>
<clipPath id="clip0_130_62">
<rect width="96" height="25.6" fill="white" transform="translate(0 0.399994)"/>
</clipPath>
</defs>
</svg>
