<svg width="40" height="40" viewBox="0 0 40 40" fill="none" xmlns="http://www.w3.org/2000/svg">
<mask id="mask0_130_15" style="mask-type:luminance" maskUnits="userSpaceOnUse" x="5" y="15" width="30" height="10">
<path d="M20.504 18.296C20.488 19.608 21.672 20.344 22.568 20.776C23.488 21.224 23.792 21.512 23.792 21.912C23.784 22.528 23.056 22.792 22.376 22.808C21.192 22.824 20.504 22.488 19.952 22.232L19.528 24.232C20.08 24.488 21.096 24.704 22.152 24.72C24.632 24.72 26.248 23.496 26.256 21.6C26.264 19.192 22.928 19.056 22.952 17.984C22.96 17.656 23.272 17.312 23.952 17.224C24.288 17.176 25.224 17.144 26.28 17.632L26.696 15.696C26.128 15.488 25.4 15.288 24.488 15.288C22.152 15.288 20.512 16.528 20.504 18.296ZM30.68 15.448C30.224 15.448 29.848 15.712 29.68 16.12L26.144 24.568H28.624L29.12 23.208H32.144L32.432 24.568H34.616L32.712 15.448H30.68M31.024 17.912L31.736 21.336H29.776L31.024 17.912ZM17.496 15.448L15.544 24.568H17.904L19.856 15.448H17.496M14.008 15.448L11.552 21.656L10.56 16.376C10.44 15.784 9.984 15.448 9.472 15.448H5.456L5.4 15.712C6.224 15.888 7.16 16.176 7.728 16.488C8.072 16.68 8.176 16.84 8.288 17.288L10.168 24.568H12.664L16.488 15.448H14.008" fill="white"/>
</mask>
<g mask="url(#mask0_130_15)">
<path d="M2.344 16.408L31.112 5.81598L37.656 23.592L8.888 34.184" fill="url(#paint0_linear_130_15)"/>
</g>
<defs>
<linearGradient id="paint0_linear_130_15" x1="8.03857" y1="24.4053" x2="32.6469" y2="15.3426" gradientUnits="userSpaceOnUse">
<stop stop-color="#222357"/>
<stop offset="1" stop-color="#254AA5"/>
</linearGradient>
</defs>
</svg>
